<?xml version="1.0" encoding="UTF-8" standalone="no"?>
<svg
   width="512px"
   height="512px"
   viewBox="0 0 512 512"
   version="1.1"
   id="svg4"
   sodipodi:docname="roll-it icon.svg"
   inkscape:version="1.2.1 (9c6d41e, 2022-07-14)"
   inkscape:export-filename="roll-it icon.png"
   inkscape:export-xdpi="96"
   inkscape:export-ydpi="96"
   xmlns:inkscape="http://www.inkscape.org/namespaces/inkscape"
   xmlns:sodipodi="http://sodipodi.sourceforge.net/DTD/sodipodi-0.dtd"
   xmlns="http://www.w3.org/2000/svg"
   xmlns:svg="http://www.w3.org/2000/svg">
  <defs
     id="defs8" />
  <sodipodi:namedview
     id="namedview6"
     pagecolor="#ffffff"
     bordercolor="#000000"
     borderopacity="0.25"
     inkscape:showpageshadow="2"
     inkscape:pageopacity="0.0"
     inkscape:pagecheckerboard="0"
     inkscape:deskcolor="#d1d1d1"
     showgrid="false"
     inkscape:zoom="1.84375"
     inkscape:cx="177.08475"
     inkscape:cy="229.9661"
     inkscape:window-width="1690"
     inkscape:window-height="1170"
     inkscape:window-x="483"
     inkscape:window-y="66"
     inkscape:window-maximized="0"
     inkscape:current-layer="svg4" />
  <path
     id="path2"
     style="fill:#03b199;fill-opacity:1"
     d="M 255.98633 26 L 137.45508 231.02539 L 255.98828 286.07617 L 374.5918 231.02539 L 255.98633 26 z M 285.01758 35.371094 L 387.13867 214.99414 L 393.23828 225.69727 L 484.81055 248.63867 L 426.12109 185.95312 C 426.52069 187.53794 426.67864 189.17485 426.58594 190.80664 C 426.28461 195.39664 423.20809 198.02102 417.35742 198.67969 C 416.81875 198.76639 416.27828 198.80859 415.73828 198.80859 C 410.42629 199.03059 405.07249 197.38504 399.67383 193.87305 C 393.68781 189.97105 388.51592 184.94372 384.44922 179.06836 C 381.97026 175.70999 380.07454 171.95945 378.83789 167.97266 C 377.89456 164.57933 378.12773 161.91886 379.53906 159.99219 C 375.80567 158.25925 372.37893 155.93026 369.39453 153.0957 C 367.05069 150.83576 364.91692 148.36661 363.01953 145.7207 C 359.33286 140.53604 357.6569 135.95461 357.99023 131.97461 C 358.3229 127.99461 361.09779 125.706 366.31445 125.11133 C 366.80245 125.00433 367.39734 125.00586 367.77734 125.00586 L 368.9668 125.00586 L 285.01758 35.371094 z M 227.0293 35.443359 L 147.23242 120.60352 C 150.81142 121.67451 152.72602 124.16038 152.91602 128.10938 C 153.14669 132.85004 150.98187 138.83574 146.42188 146.06641 C 143.02773 151.49306 138.80709 156.3564 133.91211 160.48047 C 129.86463 163.76221 125.54908 166.69727 121.00977 169.25586 L 114.58789 173.00391 C 110.54456 175.35057 107.72858 177.05891 106.14258 178.12891 C 104.45247 179.27012 102.86234 180.54941 101.38672 181.95703 L 122.35352 184.33594 L 114.17188 197.29883 L 81.263672 193.54102 C 84.607699 188.33982 88.465323 183.48655 92.777344 179.05469 C 97.280006 174.21136 103.79551 169.28848 112.32617 164.28516 C 119.74749 159.90116 124.7631 156.73015 127.37109 154.77148 C 131.21934 151.92339 134.51646 148.39612 137.09961 144.36523 C 138.80096 141.95178 139.92667 139.1815 140.39258 136.26562 C 140.59125 134.0223 139.64411 132.78664 137.55078 132.55664 L 137.39648 132.55664 C 136.92201 132.50894 136.44517 132.50894 135.9707 132.55664 L 27.189453 248.86523 L 119.22461 225.07812 L 124.93359 215.01953 L 227.0293 35.443359 z M 245.5 97.964844 L 266.5 97.964844 L 264.0625 199.12109 L 248.125 199.12109 L 245.5 97.964844 z M 374.17578 136.41016 C 372.10678 136.64716 371.04828 137.63466 370.98828 139.34766 C 370.92928 141.05965 371.89124 143.33016 373.86523 146.16016 C 375.50894 148.5876 377.61086 150.67369 380.05078 152.29883 C 381.82034 153.57299 383.94641 154.25505 386.12695 154.24805 L 386.63867 154.24805 C 388.73167 154.01005 389.76562 152.99951 389.76562 151.22852 C 389.76562 149.45652 388.85097 147.29122 387.04297 144.69922 C 386.59097 144.10422 386.1385 143.48406 385.6875 142.91406 L 383.23828 140.29883 L 383.23633 140.29883 C 382.45018 139.5586 381.60262 138.88644 380.70312 138.28906 C 378.94757 137.04944 376.84825 136.39226 374.69922 136.41016 L 374.17578 136.41016 z M 394.23828 164.92773 C 391.86028 165.17673 390.66992 166.34396 390.66992 168.37695 C 390.63059 170.41495 391.88307 173.25196 394.42773 176.89062 L 394.42773 176.92773 C 396.50826 180.02025 399.15167 182.69464 402.21875 184.8125 C 404.22367 186.32896 406.66211 187.16135 409.17578 187.18945 L 409.76953 187.18945 C 412.07753 186.88045 413.26562 185.71604 413.26562 183.62305 C 413.2503 181.54505 412.01269 178.74656 409.55469 175.22656 C 407.47553 172.07102 404.81715 169.33918 401.71875 167.17578 C 399.70625 165.72421 397.28994 164.93773 394.80859 164.92773 L 394.23828 164.92773 z M 246.4375 217.77734 L 265.5625 217.77734 L 265.5625 237.55859 L 246.4375 237.55859 L 246.4375 217.77734 z M 121.60352 244.33398 L 36.892578 266.09766 L 246.47461 486 L 246.47461 302.38086 L 136.52734 251.24219 L 121.60352 244.33398 z M 390.01758 244.53516 L 375.48242 251.24219 L 265.50391 302.38086 L 265.7168 485.76172 L 477.00977 266.3457 L 390.01758 244.53516 z M 365.39844 287.97852 L 379.4668 290.48828 C 373.22013 305.3776 363.09945 320.18731 349.10547 334.91797 C 340.24148 344.01129 333.36026 350.22402 328.46094 353.55469 L 362.74609 359.86914 L 356.80078 374.56836 L 308.19531 365.61328 L 313.20312 352.78125 C 317.93873 349.28047 322.45064 345.48764 326.71289 341.42383 C 332.64926 335.99112 338.18607 330.13631 343.2793 323.90625 C 347.86254 318.19715 352.07273 312.19773 355.88477 305.94727 C 359.57773 300.24833 362.76105 294.23631 365.39844 287.97852 z M 145.65625 294.7168 C 152.73229 294.65106 159.65244 297.20533 165.02344 301.98828 C 169.55019 306.03996 173.34601 310.83858 176.24805 316.17578 L 163.16797 318.85156 C 161.77941 316.1203 159.95945 313.63138 157.7793 311.47852 C 154.32263 308.22785 150.5689 306.943 146.51758 307.625 L 146.03125 307.7207 C 143.60474 308.10111 141.60396 309.82432 140.86914 312.16797 C 140.01314 314.54597 140.63006 317.72207 142.66406 321.53906 C 145.38406 326.60573 148.98794 329.61508 153.47461 330.56641 C 156.31771 331.01748 159.21858 330.94857 162.03711 330.36328 L 163.9043 330.01953 L 169.69531 340.8418 C 165.42999 341.79313 162.68813 342.88638 161.4668 344.12305 C 159.3268 346.21637 159.46853 349.52607 161.89453 354.05273 C 163.28359 356.79274 165.3883 359.10565 167.98438 360.74805 C 170.16758 362.16494 172.80226 362.7134 175.36914 362.2832 L 175.78516 362.19922 C 178.95648 361.55655 180.64861 359.97203 180.86328 357.44336 C 181.12428 354.87336 180.20823 351.69968 178.11523 347.92969 L 190.49609 345.38477 C 192.31446 348.9463 193.69279 352.71468 194.59961 356.60938 C 195.1362 359.74352 194.91551 362.96034 193.95703 365.99219 C 193.1931 368.14352 191.81565 370.02552 189.99609 371.4043 C 187.5953 373.06801 184.85421 374.17272 181.9707 374.63867 L 180.7793 374.85352 C 174.80944 375.87104 168.67044 374.92244 163.28516 372.15234 C 157.20214 369.06994 152.25612 364.13567 149.1582 358.06055 C 146.74021 353.53388 145.87269 349.47109 146.55469 345.87109 C 146.80968 343.98392 147.69718 342.23921 149.07422 340.92383 L 149.00391 340.92383 C 147.77458 341.1305 145.42884 340.29906 141.96484 338.42773 C 136.40299 335.28272 131.90586 330.54912 129.04883 324.83398 C 125.55216 318.32466 124.45696 312.19154 125.76562 306.43555 C 127.07362 300.67955 131.63208 297.01288 139.44141 295.43555 L 140.75 295.18555 C 142.38254 294.88661 144.02332 294.73197 145.65625 294.7168 z " />
</svg>
