<?xml version="1.0" standalone="no"?>
<!DOCTYPE svg PUBLIC "-//W3C//DTD SVG 20010904//EN"
 "http://www.w3.org/TR/2001/REC-SVG-20010904/DTD/svg10.dtd">
<svg version="1.0" xmlns="http://www.w3.org/2000/svg"
 width="700.000000pt" height="700.000000pt" viewBox="0 0 700.000000 700.000000"
 preserveAspectRatio="xMidYMid meet">
<metadata>
Created by potrace 1.14, written by Peter Selinger 2001-2017
</metadata>
<g transform="translate(0.000000,700.000000) scale(0.100000,-0.100000)"
fill="#000000" stroke="none">
<path d="M3481 6612 c-12 -17 -21 -32 -21 -35 0 -4 -176 -310 -200 -347 -5 -8
-26 -44 -46 -80 -21 -36 -45 -78 -55 -95 -9 -16 -90 -156 -179 -310 -313 -540
-533 -920 -553 -955 -11 -19 -85 -147 -165 -285 -79 -137 -154 -266 -164 -285
-11 -19 -63 -109 -115 -200 -53 -91 -98 -168 -100 -173 -2 -4 12 -14 32 -23
20 -8 75 -33 121 -54 46 -22 121 -58 167 -79 46 -22 166 -77 268 -124 101 -47
225 -104 274 -127 50 -23 216 -101 370 -172 154 -72 303 -141 331 -155 l51
-25 109 50 c60 28 213 98 339 157 127 59 257 120 290 135 33 15 94 43 135 62
41 19 224 104 405 188 182 84 333 155 337 159 4 4 -94 182 -218 396 -125 215
-237 409 -251 433 -13 23 -263 455 -555 960 -292 504 -542 937 -556 962 -14
25 -26 46 -27 48 -2 2 -12 -10 -24 -26z m160 -974 c1 -13 1 -25 1 -28 0 -3 -3
-126 -6 -275 -21 -903 -26 -1049 -35 -1055 -10 -6 -199 -5 -205 1 -2 2 -7 123
-11 269 -4 146 -8 321 -10 390 -2 69 -6 247 -10 396 -3 148 -8 282 -9 297 l-3
27 143 0 c142 0 144 0 145 -22z m-11 -1751 l0 -138 -130 2 -130 1 0 132 c0 73
2 135 4 137 2 2 61 4 130 4 l126 0 0 -138z"/>
<path d="M3910 6499 c0 -4 61 -114 136 -245 75 -132 149 -261 164 -289 15 -27
75 -133 134 -234 58 -102 106 -186 106 -188 0 -2 25 -47 56 -101 31 -53 64
-110 74 -127 9 -16 141 -249 293 -517 152 -267 290 -508 306 -536 26 -44 47
-83 114 -202 10 -19 34 -60 53 -91 l34 -57 288 -72 c158 -39 294 -73 302 -75
8 -2 89 -22 180 -45 91 -23 174 -43 185 -45 11 -3 80 -20 153 -39 72 -18 132
-32 132 -30 0 3 -31 37 -69 77 -37 39 -79 84 -92 98 -27 30 -226 243 -279 299
-97 102 -272 290 -309 330 l-41 45 0 -42 c0 -92 -44 -127 -161 -127 -68 -1
-83 3 -150 36 -183 92 -343 295 -344 438 l0 58 -61 41 c-153 102 -256 294
-204 379 18 29 42 40 112 54 14 2 8 12 -25 49 -45 49 -232 249 -307 329 -65
68 -271 288 -299 319 -13 14 -56 60 -95 101 -150 159 -322 344 -353 379 -18
20 -33 33 -33 30z"/>
<path d="M3022 6428 c-33 -35 -75 -79 -92 -98 -18 -19 -64 -69 -104 -110 -70
-75 -284 -303 -346 -370 -18 -19 -89 -96 -159 -170 -69 -74 -155 -165 -191
-204 -36 -38 -75 -80 -88 -93 l-23 -24 30 -28 c16 -15 33 -40 37 -55 24 -99
-74 -296 -216 -432 -66 -63 -120 -101 -287 -200 -78 -46 -154 -95 -170 -109
l-28 -24 30 -1 c17 -1 39 -3 50 -5 11 -3 52 -7 90 -11 75 -7 106 -11 111 -17
2 -1 -21 -41 -51 -89 -49 -76 -58 -85 -82 -82 -59 6 -139 15 -168 19 -16 2
-78 9 -138 16 -59 7 -107 15 -107 18 0 7 44 74 69 106 20 25 -27 -23 -173
-179 -61 -65 -124 -133 -141 -151 -33 -34 -222 -236 -333 -355 -118 -127 -161
-174 -159 -177 2 -1 97 23 212 52 116 30 219 57 230 59 11 2 40 10 65 17 25 7
50 13 55 15 6 1 127 32 270 69 143 37 295 77 337 87 l77 20 109 192 c104 181
152 266 176 311 6 11 19 31 27 45 14 21 342 600 386 680 8 14 23 39 33 55 11
17 24 39 29 51 5 12 52 95 104 185 52 90 105 184 119 209 14 25 79 140 145
255 66 116 132 233 147 260 40 72 145 254 168 293 11 17 18 32 15 32 -3 0 -32
-28 -65 -62z"/>
<path d="M1784 5107 c-70 -74 -286 -304 -339 -362 -11 -12 -49 -52 -85 -88
-35 -37 -61 -67 -58 -67 4 0 13 6 20 13 31 31 148 111 274 188 157 95 218 147
273 231 48 74 62 135 35 155 -10 7 -23 13 -29 13 -7 0 -48 -37 -91 -83z"/>
<path d="M5089 5119 c-24 -24 -24 -30 2 -80 30 -59 100 -126 148 -140 111 -33
117 63 10 170 -61 63 -127 83 -160 50z"/>
<path d="M5370 4737 c-14 -7 -26 -23 -28 -35 -9 -64 127 -230 208 -252 81 -22
113 6 89 78 -16 48 -77 131 -126 169 -34 27 -49 34 -103 49 -8 2 -26 -2 -40
-9z"/>
<path d="M1560 3634 c-47 -13 -94 -26 -105 -28 -20 -5 -293 -75 -475 -122 -52
-14 -102 -26 -110 -29 -163 -40 -347 -89 -352 -94 -7 -6 13 -28 316 -345 88
-93 181 -189 205 -215 54 -57 177 -186 393 -412 91 -96 188 -196 213 -224 40
-43 277 -291 410 -430 138 -145 368 -385 395 -415 18 -19 112 -118 210 -220
97 -102 194 -204 216 -226 21 -23 107 -113 190 -200 84 -88 186 -195 228 -239
l76 -80 0 1256 0 1256 -62 28 c-35 16 -114 53 -177 82 -63 30 -135 63 -160 75
-25 11 -89 41 -141 65 -52 25 -151 71 -220 103 -69 32 -165 77 -215 100 -190
89 -211 99 -255 118 -25 11 -94 44 -155 72 -205 97 -324 150 -332 149 -5 -1
-46 -12 -93 -25z m535 -676 c74 -23 136 -63 197 -126 69 -72 127 -158 105
-159 -6 0 -25 -3 -42 -7 -79 -15 -91 -18 -106 -22 -10 -3 -27 12 -49 44 -65
96 -157 131 -237 90 -64 -32 -47 -151 34 -235 21 -21 52 -45 68 -52 26 -11
131 -17 166 -9 6 2 28 -29 49 -69 l39 -71 -46 -16 c-26 -9 -55 -23 -65 -33
-47 -42 3 -171 88 -224 42 -25 112 -27 148 -4 22 14 26 25 26 62 0 25 -7 60
-16 79 -9 19 -15 36 -13 38 2 2 39 10 81 18 57 11 80 12 87 4 5 -6 19 -40 31
-76 68 -201 -23 -320 -241 -316 -72 1 -94 6 -152 33 -37 18 -91 54 -120 82
-97 91 -150 238 -113 312 9 18 15 33 14 33 -2 1 -33 16 -70 34 -212 106 -319
408 -186 528 68 62 225 92 323 62z"/>
<path d="M5229 3609 c-208 -96 -246 -113 -334 -155 -121 -57 -538 -251 -600
-279 -27 -12 -89 -41 -137 -64 -92 -43 -164 -76 -391 -181 l-137 -64 0 -1255
1 -1255 91 94 c50 52 179 187 287 298 108 112 220 229 250 260 30 32 147 154
261 272 217 224 282 292 458 475 58 61 203 211 322 335 120 124 237 245 260
270 24 25 144 150 269 279 255 265 406 422 574 596 l116 120 -57 18 c-31 9
-68 20 -82 22 -14 3 -255 63 -536 133 l-510 129 -105 -48z m-92 -573 l51 -11
-45 -90 c-129 -259 -357 -528 -646 -765 -4 -4 -2 -7 5 -7 7 -1 65 -11 128 -22
63 -12 129 -23 145 -26 17 -3 50 -10 75 -15 25 -5 58 -12 74 -14 37 -6 40 -10
27 -33 -6 -10 -24 -52 -41 -93 -17 -41 -32 -76 -34 -77 -1 -2 -27 2 -57 7 -30
6 -69 13 -88 16 -18 3 -43 8 -55 10 -23 4 -126 23 -166 30 -23 5 -201 38 -262
50 -16 3 -28 9 -28 14 0 5 14 44 30 87 26 65 39 84 78 116 115 91 282 254 357
348 103 128 210 293 270 417 l40 82 45 -6 c25 -3 68 -11 97 -18z"/>
</g>
</svg>
